# MagicaVoxel @ Ephtracy

# group
o 

# material
mtllib Extinguisher.mtl
usemtl palette

# normals
vn -1 0 0
vn 1 0 0
vn 0 0 1
vn 0 0 -1
vn 0 -1 0
vn 0 1 0

# texcoords
vt 0.0214844 0.5
vt 0.0917969 0.5
vt 0.853516 0.5
vt 0.978516 0.5
vt 0.994141 0.5

# verts
v -0.3 0.9 0.1
v -0.3 0.9 -0.1
v -0.3 1.1 0.1
v -0.3 1.1 -0.1
v -0.1 0 0.1
v -0.1 0 -0.1
v -0.1 0.3 0.1
v -0.1 0.3 -0.1
v -0.1 0.6 0.1
v -0.1 0.6 -0.1
v -0.1 0.7 0.1
v -0.1 0.7 -0.1
v -0.1 0.8 0.1
v -0.1 0.8 -0.1
v 0 0 0.2
v 0 0 0.1
v 0 0 -0.1
v 0 0 -0.2
v 0 0.3 0.2
v 0 0.3 0.1
v 0 0.3 -0.1
v 0 0.3 -0.2
v 0 0.6 0.2
v 0 0.6 0.1
v 0 0.6 -0.1
v 0 0.6 -0.2
v 0 0.7 0.2
v 0 0.7 0.1
v 0 0.7 -0.1
v 0 0.7 -0.2
v 0 0.8 0.2
v 0 0.8 0.1
v 0 0.8 -0.1
v 0 0.8 -0.2
v 0 0.9 0.1
v 0 0.9 -0.1
v 0.1 0.9 -0.1
v 0.1 0.9 -0.2
v 0.1 1 -0.1
v 0.1 1 -0.2
v 0.1 1.1 0.1
v 0.1 1.1 -0.1
v 0.1 1.2 0.1
v 0.1 1.2 -0.1
v 0.2 0 0.2
v 0.2 0 0.1
v 0.2 0 -0.1
v 0.2 0 -0.2
v 0.2 0.8 0.2
v 0.2 0.8 0.1
v 0.2 0.8 -0.1
v 0.2 0.8 -0.2
v 0.2 0.9 -0.1
v 0.2 0.9 -0.2
v 0.2 1 0.1
v 0.2 1 -0.1
v 0.2 1 -0.2
v 0.3 0 0.1
v 0.3 0 -0.1
v 0.3 0.8 0.1
v 0.3 0.8 -0.1
v 0.4 1 0.1
v 0.4 1 -0.1
v 0.4 1.2 0.1
v 0.4 1.2 -0.1
v 0 0 0.2
v 0 0.3 0.2
v 0 0.6 0.2
v 0 0.7 0.2
v 0 0.8 0.2
v 0.1 0.3 0.2
v 0.1 0.6 0.2
v 0.1 0.7 0.2
v 0.2 0 0.2
v 0.2 0.8 0.2
v -0.3 0.9 0.1
v -0.3 1.1 0.1
v -0.1 0 0.1
v -0.1 0.3 0.1
v -0.1 0.6 0.1
v -0.1 0.7 0.1
v -0.1 0.8 0.1
v 0 0 0.1
v 0 0.3 0.1
v 0 0.6 0.1
v 0 0.7 0.1
v 0 0.8 0.1
v 0 0.9 0.1
v 0.1 1.1 0.1
v 0.1 1.2 0.1
v 0.2 0 0.1
v 0.2 0.8 0.1
v 0.2 1 0.1
v 0.3 0 0.1
v 0.3 0.8 0.1
v 0.4 1 0.1
v 0.4 1.2 0.1
v -0.3 0.9 -0.1
v -0.3 1.1 -0.1
v -0.1 0 -0.1
v -0.1 0.3 -0.1
v -0.1 0.6 -0.1
v -0.1 0.7 -0.1
v -0.1 0.8 -0.1
v 0 0 -0.1
v 0 0.3 -0.1
v 0 0.6 -0.1
v 0 0.7 -0.1
v 0 0.8 -0.1
v 0 0.9 -0.1
v 0.1 0.9 -0.1
v 0.1 1 -0.1
v 0.1 1.1 -0.1
v 0.1 1.2 -0.1
v 0.2 0 -0.1
v 0.2 0.8 -0.1
v 0.2 0.9 -0.1
v 0.2 1 -0.1
v 0.3 0 -0.1
v 0.3 0.8 -0.1
v 0.4 1 -0.1
v 0.4 1.2 -0.1
v 0 0 -0.2
v 0 0.3 -0.2
v 0 0.6 -0.2
v 0 0.7 -0.2
v 0 0.8 -0.2
v 0.1 0.3 -0.2
v 0.1 0.6 -0.2
v 0.1 0.7 -0.2
v 0.1 0.9 -0.2
v 0.1 1 -0.2
v 0.2 0 -0.2
v 0.2 0.8 -0.2
v 0.2 0.9 -0.2
v 0.2 1 -0.2
v 0 0 0.2
v 0.2 0 0.2
v -0.1 0 0.1
v 0 0 0.1
v 0.2 0 0.1
v 0.3 0 0.1
v -0.1 0 -0.1
v 0 0 -0.1
v 0.2 0 -0.1
v 0.3 0 -0.1
v 0 0 -0.2
v 0.2 0 -0.2
v -0.3 0.9 0.1
v 0 0.9 0.1
v -0.3 0.9 -0.1
v 0 0.9 -0.1
v 0.1 0.9 -0.1
v 0.2 0.9 -0.1
v 0.1 0.9 -0.2
v 0.2 0.9 -0.2
v 0.2 1 0.1
v 0.4 1 0.1
v 0.2 1 -0.1
v 0.4 1 -0.1
v 0 0.8 0.2
v 0.2 0.8 0.2
v -0.1 0.8 0.1
v 0 0.8 0.1
v 0.2 0.8 0.1
v 0.3 0.8 0.1
v -0.1 0.8 -0.1
v 0 0.8 -0.1
v 0.2 0.8 -0.1
v 0.3 0.8 -0.1
v 0 0.8 -0.2
v 0.2 0.8 -0.2
v 0.1 1 -0.1
v 0.2 1 -0.1
v 0.1 1 -0.2
v 0.2 1 -0.2
v -0.3 1.1 0.1
v 0.1 1.1 0.1
v -0.3 1.1 -0.1
v 0.1 1.1 -0.1
v 0.1 1.2 0.1
v 0.4 1.2 0.1
v 0.1 1.2 -0.1
v 0.4 1.2 -0.1

# faces
f 3/5/1 2/5/1 1/5/1
f 4/5/1 2/5/1 3/5/1
f 7/3/1 6/3/1 5/3/1
f 8/3/1 6/3/1 7/3/1
f 9/1/1 8/1/1 7/1/1
f 10/1/1 8/1/1 9/1/1
f 11/2/1 10/2/1 9/2/1
f 12/2/1 10/2/1 11/2/1
f 13/3/1 12/3/1 11/3/1
f 14/3/1 12/3/1 13/3/1
f 19/3/1 16/3/1 15/3/1
f 20/3/1 16/3/1 19/3/1
f 21/3/1 18/3/1 17/3/1
f 22/3/1 18/3/1 21/3/1
f 23/1/1 20/1/1 19/1/1
f 24/1/1 20/1/1 23/1/1
f 25/1/1 22/1/1 21/1/1
f 26/1/1 22/1/1 25/1/1
f 27/2/1 24/2/1 23/2/1
f 28/2/1 24/2/1 27/2/1
f 29/2/1 26/2/1 25/2/1
f 30/2/1 26/2/1 29/2/1
f 31/3/1 28/3/1 27/3/1
f 32/3/1 28/3/1 31/3/1
f 33/3/1 30/3/1 29/3/1
f 34/3/1 30/3/1 33/3/1
f 35/5/1 33/5/1 32/5/1
f 36/5/1 33/5/1 35/5/1
f 39/4/1 38/4/1 37/4/1
f 40/4/1 38/4/1 39/4/1
f 43/5/1 42/5/1 41/5/1
f 44/5/1 42/5/1 43/5/1
f 45/3/2 46/3/2 49/3/2
f 49/3/2 46/3/2 50/3/2
f 47/3/2 48/3/2 51/3/2
f 51/3/2 48/3/2 52/3/2
f 50/5/2 51/5/2 53/5/2
f 50/5/2 53/5/2 55/5/2
f 53/4/2 54/4/2 56/4/2
f 55/5/2 53/5/2 56/5/2
f 56/4/2 54/4/2 57/4/2
f 58/3/2 59/3/2 60/3/2
f 60/3/2 59/3/2 61/3/2
f 62/5/2 63/5/2 64/5/2
f 64/5/2 63/5/2 65/5/2
f 71/3/3 67/3/3 66/3/3
f 71/1/3 68/1/3 67/1/3
f 72/2/3 69/2/3 68/2/3
f 72/1/3 68/1/3 71/1/3
f 73/3/3 70/3/3 69/3/3
f 73/2/3 69/2/3 72/2/3
f 74/3/3 72/3/3 71/3/3
f 74/3/3 71/3/3 66/3/3
f 74/3/3 73/3/3 72/3/3
f 75/3/3 70/3/3 73/3/3
f 75/3/3 73/3/3 74/3/3
f 83/3/3 79/3/3 78/3/3
f 84/1/3 80/1/3 79/1/3
f 84/3/3 79/3/3 83/3/3
f 85/2/3 81/2/3 80/2/3
f 85/1/3 80/1/3 84/1/3
f 86/3/3 82/3/3 81/3/3
f 86/2/3 81/2/3 85/2/3
f 87/3/3 82/3/3 86/3/3
f 88/5/3 77/5/3 76/5/3
f 89/5/3 88/5/3 87/5/3
f 89/5/3 77/5/3 88/5/3
f 92/5/3 89/5/3 87/5/3
f 92/5/3 90/5/3 89/5/3
f 93/5/3 90/5/3 92/5/3
f 94/3/3 92/3/3 91/3/3
f 95/3/3 92/3/3 94/3/3
f 96/5/3 90/5/3 93/5/3
f 97/5/3 90/5/3 96/5/3
f 100/3/4 101/3/4 105/3/4
f 101/1/4 102/1/4 106/1/4
f 105/3/4 101/3/4 106/3/4
f 102/2/4 103/2/4 107/2/4
f 106/1/4 102/1/4 107/1/4
f 103/3/4 104/3/4 108/3/4
f 107/2/4 103/2/4 108/2/4
f 108/3/4 104/3/4 109/3/4
f 98/5/4 99/5/4 110/5/4
f 109/5/4 110/5/4 111/5/4
f 110/5/4 99/5/4 111/5/4
f 111/5/4 99/5/4 112/5/4
f 112/5/4 99/5/4 113/5/4
f 109/5/4 111/5/4 116/5/4
f 116/5/4 111/5/4 117/5/4
f 112/5/4 113/5/4 118/5/4
f 113/5/4 114/5/4 118/5/4
f 115/3/4 116/3/4 119/3/4
f 119/3/4 116/3/4 120/3/4
f 118/5/4 114/5/4 121/5/4
f 121/5/4 114/5/4 122/5/4
f 123/3/4 124/3/4 128/3/4
f 124/1/4 125/1/4 128/1/4
f 125/2/4 126/2/4 129/2/4
f 128/1/4 125/1/4 129/1/4
f 126/3/4 127/3/4 130/3/4
f 129/2/4 126/2/4 130/2/4
f 128/3/4 129/3/4 133/3/4
f 123/3/4 128/3/4 133/3/4
f 129/3/4 130/3/4 133/3/4
f 130/3/4 127/3/4 134/3/4
f 133/3/4 130/3/4 134/3/4
f 131/4/4 132/4/4 135/4/4
f 135/4/4 132/4/4 136/4/4
f 140/3/5 138/3/5 137/3/5
f 141/3/5 138/3/5 140/3/5
f 143/3/5 140/3/5 139/3/5
f 143/3/5 142/3/5 141/3/5
f 143/3/5 141/3/5 140/3/5
f 144/3/5 142/3/5 143/3/5
f 145/3/5 142/3/5 144/3/5
f 146/3/5 142/3/5 145/3/5
f 147/3/5 145/3/5 144/3/5
f 148/3/5 145/3/5 147/3/5
f 151/5/5 150/5/5 149/5/5
f 152/5/5 150/5/5 151/5/5
f 155/4/5 154/4/5 153/4/5
f 156/4/5 154/4/5 155/4/5
f 159/5/5 158/5/5 157/5/5
f 160/5/5 158/5/5 159/5/5
f 161/3/6 162/3/6 164/3/6
f 164/3/6 162/3/6 165/3/6
f 163/3/6 164/3/6 167/3/6
f 167/3/6 164/3/6 168/3/6
f 165/3/6 166/3/6 169/3/6
f 169/3/6 166/3/6 170/3/6
f 168/3/6 169/3/6 171/3/6
f 171/3/6 169/3/6 172/3/6
f 173/4/6 174/4/6 175/4/6
f 175/4/6 174/4/6 176/4/6
f 177/5/6 178/5/6 179/5/6
f 179/5/6 178/5/6 180/5/6
f 181/5/6 182/5/6 183/5/6
f 183/5/6 182/5/6 184/5/6
