# MagicaVoxel @ Ephtracy

# group
o 

# material
mtllib Frame.mtl
usemtl palette

# normals
vn -1 0 0
vn 1 0 0
vn 0 0 1
vn 0 0 -1
vn 0 -1 0
vn 0 1 0

# texcoords
vt 0.974609 0.5
vt 0.982422 0.5

# verts
v 0 5.1 -1.1
v 0 5.1 -2.9
v 0 5.2 -1.1
v 0 5.2 -2.9
v 0.1 2 0
v 0.1 2 -1.2
v 0.1 2 -2.8
v 0.1 2 -4
v 0.1 2.2 0
v 0.1 2.2 -1.2
v 0.1 2.2 -2.8
v 0.1 2.2 -4
v 0.1 5.1 -1.1
v 0.1 5.1 -1.2
v 0.1 5.1 -2.8
v 0.1 5.1 -2.9
v 0.1 5.2 -1.1
v 0.1 5.2 -2.9
v 0.1 5.9 0
v 0.1 5.9 -4
v 0.1 6 0
v 0.1 6 -4
v 0.2 2 0
v 0.2 2 -1.2
v 0.2 2 -2.8
v 0.2 2 -4
v 0.2 2.2 0
v 0.2 2.2 -1.2
v 0.2 2.2 -2.8
v 0.2 2.2 -4
v 0.2 5.1 -1.1
v 0.2 5.1 -1.2
v 0.2 5.1 -2.8
v 0.2 5.1 -2.9
v 0.2 5.2 -1.1
v 0.2 5.2 -2.9
v 0.2 5.9 0
v 0.2 5.9 -4
v 0.2 6 0
v 0.2 6 -4
v 0.3 5.1 -1.1
v 0.3 5.1 -2.9
v 0.3 5.2 -1.1
v 0.3 5.2 -2.9
v 0.1 2 0
v 0.1 2.2 0
v 0.1 5.9 0
v 0.1 6 0
v 0.2 2 0
v 0.2 2.2 0
v 0.2 5.9 0
v 0.2 6 0
v 0 5.1 -1.1
v 0 5.2 -1.1
v 0.1 5.1 -1.1
v 0.1 5.2 -1.1
v 0.2 5.1 -1.1
v 0.2 5.2 -1.1
v 0.3 5.1 -1.1
v 0.3 5.2 -1.1
v 0.1 2 -2.8
v 0.1 2.2 -2.8
v 0.1 5.1 -2.8
v 0.2 2 -2.8
v 0.2 2.2 -2.8
v 0.2 5.1 -2.8
v 0.1 2 -1.2
v 0.1 2.2 -1.2
v 0.1 5.1 -1.2
v 0.2 2 -1.2
v 0.2 2.2 -1.2
v 0.2 5.1 -1.2
v 0 5.1 -2.9
v 0 5.2 -2.9
v 0.1 5.1 -2.9
v 0.1 5.2 -2.9
v 0.2 5.1 -2.9
v 0.2 5.2 -2.9
v 0.3 5.1 -2.9
v 0.3 5.2 -2.9
v 0.1 2 -4
v 0.1 2.2 -4
v 0.1 5.9 -4
v 0.1 6 -4
v 0.2 2 -4
v 0.2 2.2 -4
v 0.2 5.9 -4
v 0.2 6 -4
v 0.1 2 0
v 0.2 2 0
v 0.1 2 -1.2
v 0.2 2 -1.2
v 0.1 2 -2.8
v 0.2 2 -2.8
v 0.1 2 -4
v 0.2 2 -4
v 0 5.1 -1.1
v 0.1 5.1 -1.1
v 0.2 5.1 -1.1
v 0.3 5.1 -1.1
v 0.1 5.1 -1.2
v 0.2 5.1 -1.2
v 0.1 5.1 -2.8
v 0.2 5.1 -2.8
v 0 5.1 -2.9
v 0.1 5.1 -2.9
v 0.2 5.1 -2.9
v 0.3 5.1 -2.9
v 0 5.2 -1.1
v 0.1 5.2 -1.1
v 0.2 5.2 -1.1
v 0.3 5.2 -1.1
v 0 5.2 -2.9
v 0.1 5.2 -2.9
v 0.2 5.2 -2.9
v 0.3 5.2 -2.9
v 0.1 6 0
v 0.2 6 0
v 0.1 6 -4
v 0.2 6 -4

# faces
f 3/2/1 2/2/1 1/2/1
f 4/2/1 2/2/1 3/2/1
f 9/2/1 6/2/1 5/2/1
f 10/2/1 6/2/1 9/2/1
f 11/2/1 8/2/1 7/2/1
f 12/2/1 8/2/1 11/2/1
f 13/1/1 10/1/1 9/1/1
f 14/1/1 10/1/1 13/1/1
f 15/1/1 12/1/1 11/1/1
f 16/1/1 12/1/1 15/1/1
f 17/1/1 13/1/1 9/1/1
f 18/1/1 12/1/1 16/1/1
f 19/1/1 17/1/1 9/1/1
f 19/1/1 18/1/1 17/1/1
f 20/1/1 12/1/1 18/1/1
f 20/1/1 18/1/1 19/1/1
f 21/2/1 20/2/1 19/2/1
f 22/2/1 20/2/1 21/2/1
f 23/2/2 24/2/2 27/2/2
f 27/2/2 24/2/2 28/2/2
f 25/2/2 26/2/2 29/2/2
f 29/2/2 26/2/2 30/2/2
f 27/1/2 28/1/2 31/1/2
f 31/1/2 28/1/2 32/1/2
f 29/1/2 30/1/2 33/1/2
f 33/1/2 30/1/2 34/1/2
f 27/1/2 31/1/2 35/1/2
f 34/1/2 30/1/2 36/1/2
f 27/1/2 35/1/2 37/1/2
f 35/1/2 36/1/2 37/1/2
f 36/1/2 30/1/2 38/1/2
f 37/1/2 36/1/2 38/1/2
f 37/2/2 38/2/2 39/2/2
f 39/2/2 38/2/2 40/2/2
f 41/2/2 42/2/2 43/2/2
f 43/2/2 42/2/2 44/2/2
f 49/2/3 46/2/3 45/2/3
f 50/1/3 47/1/3 46/1/3
f 50/2/3 46/2/3 49/2/3
f 51/2/3 48/2/3 47/2/3
f 51/1/3 47/1/3 50/1/3
f 52/2/3 48/2/3 51/2/3
f 55/2/3 54/2/3 53/2/3
f 56/2/3 54/2/3 55/2/3
f 59/2/3 58/2/3 57/2/3
f 60/2/3 58/2/3 59/2/3
f 64/2/3 62/2/3 61/2/3
f 65/1/3 63/1/3 62/1/3
f 65/2/3 62/2/3 64/2/3
f 66/1/3 63/1/3 65/1/3
f 67/2/4 68/2/4 70/2/4
f 68/1/4 69/1/4 71/1/4
f 70/2/4 68/2/4 71/2/4
f 71/1/4 69/1/4 72/1/4
f 73/2/4 74/2/4 75/2/4
f 75/2/4 74/2/4 76/2/4
f 77/2/4 78/2/4 79/2/4
f 79/2/4 78/2/4 80/2/4
f 81/2/4 82/2/4 85/2/4
f 82/1/4 83/1/4 86/1/4
f 85/2/4 82/2/4 86/2/4
f 83/2/4 84/2/4 87/2/4
f 86/1/4 83/1/4 87/1/4
f 87/2/4 84/2/4 88/2/4
f 91/2/5 90/2/5 89/2/5
f 92/2/5 90/2/5 91/2/5
f 95/2/5 94/2/5 93/2/5
f 96/2/5 94/2/5 95/2/5
f 101/2/5 98/2/5 97/2/5
f 102/2/5 100/2/5 99/2/5
f 103/2/5 101/2/5 97/2/5
f 103/2/5 102/2/5 101/2/5
f 104/2/5 100/2/5 102/2/5
f 104/2/5 102/2/5 103/2/5
f 105/2/5 103/2/5 97/2/5
f 106/2/5 103/2/5 105/2/5
f 107/2/5 100/2/5 104/2/5
f 108/2/5 100/2/5 107/2/5
f 109/2/6 110/2/6 113/2/6
f 113/2/6 110/2/6 114/2/6
f 111/2/6 112/2/6 115/2/6
f 115/2/6 112/2/6 116/2/6
f 117/2/6 118/2/6 119/2/6
f 119/2/6 118/2/6 120/2/6
