# MagicaVoxel @ Ephtracy

# group
o 

# material
mtllib Table.mtl
usemtl palette

# normals
vn -1 0 0
vn 1 0 0
vn 0 0 1
vn 0 0 -1
vn 0 -1 0
vn 0 1 0

# texcoords
vt 0.0371094 0.5
vt 0.974609 0.5
vt 0.986328 0.5

# verts
v -1 1.3 1.9
v -1 1.3 -1.9
v -1 1.4 1.9
v -1 1.4 -1.9
v -0.9 0 1.8
v -0.9 0 1.7
v -0.9 0 -1.7
v -0.9 0 -1.8
v -0.9 0.2 1.8
v -0.9 0.2 1.7
v -0.9 0.2 -1.7
v -0.9 0.2 -1.8
v -0.9 1.2 1.7
v -0.9 1.2 -1.7
v -0.9 1.3 1.8
v -0.9 1.3 -1.8
v 0.8 0 1.8
v 0.8 0 1.7
v 0.8 0 -1.7
v 0.8 0 -1.8
v 0.8 0.2 1.8
v 0.8 0.2 1.7
v 0.8 0.2 -1.7
v 0.8 0.2 -1.8
v 0.8 1.2 1.8
v 0.8 1.2 1.7
v 0.8 1.2 -1.7
v 0.8 1.2 -1.8
v 0.8 1.3 1.7
v 0.8 1.3 -1.7
v -0.8 0 1.8
v -0.8 0 1.7
v -0.8 0 -1.7
v -0.8 0 -1.8
v -0.8 0.2 1.8
v -0.8 0.2 1.7
v -0.8 0.2 -1.7
v -0.8 0.2 -1.8
v -0.8 1.2 1.8
v -0.8 1.2 1.7
v -0.8 1.2 -1.7
v -0.8 1.2 -1.8
v -0.8 1.3 1.7
v -0.8 1.3 -1.7
v 0.9 0 1.8
v 0.9 0 1.7
v 0.9 0 -1.7
v 0.9 0 -1.8
v 0.9 0.2 1.8
v 0.9 0.2 1.7
v 0.9 0.2 -1.7
v 0.9 0.2 -1.8
v 0.9 1.2 1.7
v 0.9 1.2 -1.7
v 0.9 1.3 1.8
v 0.9 1.3 -1.8
v 1 1.3 1.9
v 1 1.3 -1.9
v 1 1.4 1.9
v 1 1.4 -1.9
v -1 1.3 1.9
v -1 1.4 1.9
v 1 1.3 1.9
v 1 1.4 1.9
v -0.9 0 1.8
v -0.9 0.2 1.8
v -0.9 1.3 1.8
v -0.8 0 1.8
v -0.8 0.2 1.8
v -0.8 1.2 1.8
v 0.8 0 1.8
v 0.8 0.2 1.8
v 0.8 1.2 1.8
v 0.9 0 1.8
v 0.9 0.2 1.8
v 0.9 1.3 1.8
v -0.9 0 -1.7
v -0.9 0.2 -1.7
v -0.9 1.2 -1.7
v -0.8 0 -1.7
v -0.8 0.2 -1.7
v -0.8 1.2 -1.7
v -0.8 1.3 -1.7
v 0.8 0 -1.7
v 0.8 0.2 -1.7
v 0.8 1.2 -1.7
v 0.8 1.3 -1.7
v 0.9 0 -1.7
v 0.9 0.2 -1.7
v 0.9 1.2 -1.7
v -0.9 0 1.7
v -0.9 0.2 1.7
v -0.9 1.2 1.7
v -0.8 0 1.7
v -0.8 0.2 1.7
v -0.8 1.2 1.7
v -0.8 1.3 1.7
v 0.8 0 1.7
v 0.8 0.2 1.7
v 0.8 1.2 1.7
v 0.8 1.3 1.7
v 0.9 0 1.7
v 0.9 0.2 1.7
v 0.9 1.2 1.7
v -0.9 0 -1.8
v -0.9 0.2 -1.8
v -0.9 1.3 -1.8
v -0.8 0 -1.8
v -0.8 0.2 -1.8
v -0.8 1.2 -1.8
v 0.8 0 -1.8
v 0.8 0.2 -1.8
v 0.8 1.2 -1.8
v 0.9 0 -1.8
v 0.9 0.2 -1.8
v 0.9 1.3 -1.8
v -1 1.3 -1.9
v -1 1.4 -1.9
v 1 1.3 -1.9
v 1 1.4 -1.9
v -0.9 0 1.8
v -0.8 0 1.8
v 0.8 0 1.8
v 0.9 0 1.8
v -0.9 0 1.7
v -0.8 0 1.7
v 0.8 0 1.7
v 0.9 0 1.7
v -0.9 0 -1.7
v -0.8 0 -1.7
v 0.8 0 -1.7
v 0.9 0 -1.7
v -0.9 0 -1.8
v -0.8 0 -1.8
v 0.8 0 -1.8
v 0.9 0 -1.8
v -0.8 1.2 1.8
v 0.8 1.2 1.8
v -0.9 1.2 1.7
v -0.8 1.2 1.7
v 0.8 1.2 1.7
v 0.9 1.2 1.7
v -0.9 1.2 -1.7
v -0.8 1.2 -1.7
v 0.8 1.2 -1.7
v 0.9 1.2 -1.7
v -0.8 1.2 -1.8
v 0.8 1.2 -1.8
v -1 1.3 1.9
v 1 1.3 1.9
v -0.9 1.3 1.8
v 0.9 1.3 1.8
v -0.8 1.3 1.7
v 0.8 1.3 1.7
v -0.8 1.3 -1.7
v 0.8 1.3 -1.7
v -0.9 1.3 -1.8
v 0.9 1.3 -1.8
v -1 1.3 -1.9
v 1 1.3 -1.9
v -1 1.4 1.9
v 1 1.4 1.9
v -1 1.4 -1.9
v 1 1.4 -1.9

# faces
f 3/1/1 2/1/1 1/1/1
f 4/1/1 2/1/1 3/1/1
f 9/3/1 6/3/1 5/3/1
f 10/3/1 6/3/1 9/3/1
f 11/3/1 8/3/1 7/3/1
f 12/3/1 8/3/1 11/3/1
f 13/2/1 10/2/1 9/2/1
f 14/2/1 12/2/1 11/2/1
f 15/2/1 13/2/1 9/2/1
f 15/2/1 14/2/1 13/2/1
f 16/2/1 12/2/1 14/2/1
f 16/2/1 14/2/1 15/2/1
f 21/3/1 18/3/1 17/3/1
f 22/3/1 18/3/1 21/3/1
f 23/3/1 20/3/1 19/3/1
f 24/3/1 20/3/1 23/3/1
f 25/2/1 22/2/1 21/2/1
f 26/2/1 22/2/1 25/2/1
f 27/2/1 24/2/1 23/2/1
f 28/2/1 24/2/1 27/2/1
f 29/2/1 27/2/1 26/2/1
f 30/2/1 27/2/1 29/2/1
f 31/3/2 32/3/2 35/3/2
f 35/3/2 32/3/2 36/3/2
f 33/3/2 34/3/2 37/3/2
f 37/3/2 34/3/2 38/3/2
f 35/2/2 36/2/2 39/2/2
f 39/2/2 36/2/2 40/2/2
f 37/2/2 38/2/2 41/2/2
f 41/2/2 38/2/2 42/2/2
f 40/2/2 41/2/2 43/2/2
f 43/2/2 41/2/2 44/2/2
f 45/3/2 46/3/2 49/3/2
f 49/3/2 46/3/2 50/3/2
f 47/3/2 48/3/2 51/3/2
f 51/3/2 48/3/2 52/3/2
f 49/2/2 50/2/2 53/2/2
f 51/2/2 52/2/2 54/2/2
f 49/2/2 53/2/2 55/2/2
f 53/2/2 54/2/2 55/2/2
f 54/2/2 52/2/2 56/2/2
f 55/2/2 54/2/2 56/2/2
f 57/1/2 58/1/2 59/1/2
f 59/1/2 58/1/2 60/1/2
f 63/1/3 62/1/3 61/1/3
f 64/1/3 62/1/3 63/1/3
f 68/3/3 66/3/3 65/3/3
f 69/2/3 67/2/3 66/2/3
f 69/3/3 66/3/3 68/3/3
f 70/2/3 67/2/3 69/2/3
f 73/2/3 67/2/3 70/2/3
f 74/3/3 72/3/3 71/3/3
f 75/2/3 73/2/3 72/2/3
f 75/3/3 72/3/3 74/3/3
f 76/2/3 67/2/3 73/2/3
f 76/2/3 73/2/3 75/2/3
f 80/3/3 78/3/3 77/3/3
f 81/2/3 79/2/3 78/2/3
f 81/3/3 78/3/3 80/3/3
f 82/2/3 79/2/3 81/2/3
f 86/2/3 83/2/3 82/2/3
f 87/2/3 83/2/3 86/2/3
f 88/3/3 85/3/3 84/3/3
f 89/2/3 86/2/3 85/2/3
f 89/3/3 85/3/3 88/3/3
f 90/2/3 86/2/3 89/2/3
f 91/3/4 92/3/4 94/3/4
f 92/2/4 93/2/4 95/2/4
f 94/3/4 92/3/4 95/3/4
f 95/2/4 93/2/4 96/2/4
f 96/2/4 97/2/4 100/2/4
f 100/2/4 97/2/4 101/2/4
f 98/3/4 99/3/4 102/3/4
f 99/2/4 100/2/4 103/2/4
f 102/3/4 99/3/4 103/3/4
f 103/2/4 100/2/4 104/2/4
f 105/3/4 106/3/4 108/3/4
f 106/2/4 107/2/4 109/2/4
f 108/3/4 106/3/4 109/3/4
f 109/2/4 107/2/4 110/2/4
f 110/2/4 107/2/4 113/2/4
f 111/3/4 112/3/4 114/3/4
f 112/2/4 113/2/4 115/2/4
f 114/3/4 112/3/4 115/3/4
f 113/2/4 107/2/4 116/2/4
f 115/2/4 113/2/4 116/2/4
f 117/1/4 118/1/4 119/1/4
f 119/1/4 118/1/4 120/1/4
f 125/3/5 122/3/5 121/3/5
f 126/3/5 122/3/5 125/3/5
f 127/3/5 124/3/5 123/3/5
f 128/3/5 124/3/5 127/3/5
f 133/3/5 130/3/5 129/3/5
f 134/3/5 130/3/5 133/3/5
f 135/3/5 132/3/5 131/3/5
f 136/3/5 132/3/5 135/3/5
f 140/2/5 138/2/5 137/2/5
f 141/2/5 138/2/5 140/2/5
f 143/2/5 140/2/5 139/2/5
f 144/2/5 140/2/5 143/2/5
f 145/2/5 142/2/5 141/2/5
f 146/2/5 142/2/5 145/2/5
f 147/2/5 145/2/5 144/2/5
f 148/2/5 145/2/5 147/2/5
f 151/1/5 150/1/5 149/1/5
f 152/1/5 150/1/5 151/1/5
f 155/1/5 154/1/5 153/1/5
f 156/1/5 154/1/5 155/1/5
f 157/1/5 151/1/5 149/1/5
f 158/1/5 150/1/5 152/1/5
f 159/1/5 157/1/5 149/1/5
f 159/1/5 158/1/5 157/1/5
f 160/1/5 150/1/5 158/1/5
f 160/1/5 158/1/5 159/1/5
f 161/1/6 162/1/6 163/1/6
f 163/1/6 162/1/6 164/1/6
