# MagicaVoxel @ Ephtracy

# group
o 

# material
mtllib Workstation.mtl
usemtl palette

# normals
vn -1 0 0
vn 1 0 0
vn 0 0 1
vn 0 0 -1
vn 0 -1 0
vn 0 1 0

# texcoords
vt 0.396484 0.5
vt 0.958984 0.5
vt 0.962891 0.5
vt 0.970703 0.5
vt 0.974609 0.5
vt 0.978516 0.5
vt 0.982422 0.5
vt 0.986328 0.5
vt 0.990234 0.5
vt 0.994141 0.5

# verts
v -1 0.1 1.9
v -1 0.1 1.8
v -1 0.1 -1.8
v -1 0.1 -1.9
v -1 0.5 1.8
v -1 0.5 0.8
v -1 0.6 1.8
v -1 0.6 0.9
v -1 0.7 1.5
v -1 0.7 1.2
v -1 0.8 1.5
v -1 0.8 1.2
v -1 1.1 1.5
v -1 1.1 1.2
v -1 1.2 1.5
v -1 1.2 1.2
v -1 1.3 1.8
v -1 1.3 0.9
v -1 1.3 0.8
v -1 1.3 -1.8
v -1 1.4 1.9
v -1 1.4 -1.9
v -0.9 0 1.9
v -0.9 0 1.8
v -0.9 0 -1.8
v -0.9 0 -1.9
v -0.9 0.1 1.9
v -0.9 0.1 1.8
v -0.9 0.1 -1.8
v -0.9 0.1 -1.9
v -0.9 0.6 1.8
v -0.9 0.6 0.9
v -0.9 0.7 1.5
v -0.9 0.7 1.2
v -0.9 0.8 1.5
v -0.9 0.8 1.2
v -0.9 0.9 1.8
v -0.9 0.9 0.9
v -0.9 1 1.8
v -0.9 1 0.9
v -0.9 1.1 1.5
v -0.9 1.1 1.2
v -0.9 1.2 1.5
v -0.9 1.2 1.2
v -0.9 1.2 0.8
v -0.9 1.2 -1.8
v -0.9 1.3 1.8
v -0.9 1.3 0.9
v -0.9 1.3 0.8
v -0.9 1.3 -1.8
v -0.8 0.9 1.8
v -0.8 0.9 0.9
v -0.8 1 1.8
v -0.8 1 0.9
v -0.4 1.4 0.6
v -0.4 1.4 -0.7
v -0.4 1.5 0.6
v -0.4 1.5 -0.7
v -0.1 1.4 1
v -0.1 1.4 0.8
v -0.1 1.5 1
v -0.1 1.5 0.8
v 0.1 1.4 -1.1
v 0.1 1.4 -1.4
v 0.1 1.9 -1.1
v 0.1 1.9 -1.4
v 0.2 1.4 0.4
v 0.2 1.4 -0.5
v 0.2 1.5 0.4
v 0.2 1.5 -0.5
v 0.2 1.5 -1.4
v 0.2 1.5 -1.6
v 0.2 1.6 -1.4
v 0.2 1.6 -1.5
v 0.2 1.7 -1.4
v 0.2 1.7 -1.5
v 0.2 1.8 -1.4
v 0.2 1.8 -1.6
v 0.3 1.6 0.6
v 0.3 1.6 -0.7
v 0.3 1.7 0.5
v 0.3 1.7 -0.6
v 0.3 1.8 -1.2
v 0.3 1.8 -1.3
v 0.3 1.9 -1.2
v 0.3 1.9 -1.3
v 0.3 2.4 0.5
v 0.3 2.4 -0.6
v 0.3 2.5 0.6
v 0.3 2.5 -0.7
v 0.4 1.5 0.2
v 0.4 1.5 -0.3
v 0.4 1.6 0.2
v 0.4 1.6 -0.3
v 0.6 0 1.9
v 0.6 0 1.8
v 0.6 0 -1.8
v 0.6 0 -1.9
v 0.6 0.1 1.9
v 0.6 0.1 1.8
v 0.6 0.1 -1.8
v 0.6 0.1 -1.9
v 0.8 1.2 0.8
v 0.8 1.2 -1.7
v 0.8 1.3 0.8
v 0.8 1.3 -1.7
v -0.8 1.2 0.8
v -0.8 1.2 -1.7
v -0.8 1.3 0.8
v -0.8 1.3 -1.7
v -0.6 0 1.9
v -0.6 0 1.8
v -0.6 0 -1.8
v -0.6 0 -1.9
v -0.6 0.1 1.9
v -0.6 0.1 1.8
v -0.6 0.1 -1.8
v -0.6 0.1 -1.9
v 0.1 1.4 0.6
v 0.1 1.4 -0.7
v 0.1 1.5 0.6
v 0.1 1.5 -0.7
v 0.2 1.4 1
v 0.2 1.4 0.9
v 0.2 1.4 0.8
v 0.2 1.5 1
v 0.2 1.5 0.9
v 0.2 1.5 0.8
v 0.2 1.8 -1.2
v 0.2 1.8 -1.3
v 0.2 1.9 -1.2
v 0.2 1.9 -1.3
v 0.3 1.5 -1.4
v 0.3 1.5 -1.6
v 0.3 1.6 -1.4
v 0.3 1.6 -1.5
v 0.3 1.7 -1.4
v 0.3 1.7 -1.5
v 0.3 1.8 -1.4
v 0.3 1.8 -1.6
v 0.4 1.4 -1.1
v 0.4 1.4 -1.4
v 0.4 1.9 -1.1
v 0.4 1.9 -1.4
v 0.5 1.5 0.2
v 0.5 1.5 -0.3
v 0.5 1.6 0.6
v 0.5 1.6 0.2
v 0.5 1.6 -0.3
v 0.5 1.6 -0.7
v 0.5 1.7 0.3
v 0.5 1.7 -0.4
v 0.5 2.2 0.3
v 0.5 2.2 -0.4
v 0.5 2.5 0.6
v 0.5 2.5 -0.7
v 0.6 1.4 0.4
v 0.6 1.4 -0.5
v 0.6 1.5 0.4
v 0.6 1.5 -0.5
v 0.6 1.7 0.3
v 0.6 1.7 -0.4
v 0.6 2.2 0.3
v 0.6 2.2 -0.4
v 0.9 0 1.9
v 0.9 0 1.8
v 0.9 0 -1.8
v 0.9 0 -1.9
v 0.9 0.1 1.9
v 0.9 0.1 1.8
v 0.9 0.1 -1.8
v 0.9 0.1 -1.9
v 0.9 1.2 0.8
v 0.9 1.2 -1.8
v 0.9 1.3 0.8
v 0.9 1.3 -1.8
v 1 0.1 1.9
v 1 0.1 1.8
v 1 0.1 -1.8
v 1 0.1 -1.9
v 1 0.5 1.8
v 1 0.5 0.8
v 1 1.3 0.8
v 1 1.3 -1.8
v 1 1.4 1.9
v 1 1.4 -1.9
v -1 0.1 1.9
v -1 1.4 1.9
v -0.9 0 1.9
v -0.9 0.1 1.9
v -0.6 0 1.9
v -0.6 0.1 1.9
v 0.6 0 1.9
v 0.6 0.1 1.9
v 0.9 0 1.9
v 0.9 0.1 1.9
v 1 0.1 1.9
v 1 1.4 1.9
v -1 0.7 1.5
v -1 0.8 1.5
v -1 1.1 1.5
v -1 1.2 1.5
v -0.9 0.7 1.5
v -0.9 0.8 1.5
v -0.9 1.1 1.5
v -0.9 1.2 1.5
v -0.1 1.4 1
v -0.1 1.5 1
v 0.2 1.4 1
v 0.2 1.5 1
v -1 0.6 0.9
v -1 1.3 0.9
v -0.9 0.6 0.9
v -0.9 0.9 0.9
v -0.9 1 0.9
v -0.9 1.3 0.9
v -0.8 0.9 0.9
v -0.8 1 0.9
v -0.4 1.4 0.6
v -0.4 1.5 0.6
v 0.1 1.4 0.6
v 0.1 1.5 0.6
v 0.3 1.6 0.6
v 0.3 2.5 0.6
v 0.5 1.6 0.6
v 0.5 2.5 0.6
v 0.2 1.4 0.4
v 0.2 1.5 0.4
v 0.6 1.4 0.4
v 0.6 1.5 0.4
v 0.5 1.7 0.3
v 0.5 2.2 0.3
v 0.6 1.7 0.3
v 0.6 2.2 0.3
v 0.4 1.5 0.2
v 0.4 1.6 0.2
v 0.5 1.5 0.2
v 0.5 1.6 0.2
v 0.1 1.4 -1.1
v 0.1 1.9 -1.1
v 0.4 1.4 -1.1
v 0.4 1.9 -1.1
v 0.2 1.8 -1.3
v 0.2 1.9 -1.3
v 0.3 1.8 -1.3
v 0.3 1.9 -1.3
v 0.2 1.6 -1.5
v 0.2 1.7 -1.5
v 0.3 1.6 -1.5
v 0.3 1.7 -1.5
v -0.8 1.2 -1.7
v -0.8 1.3 -1.7
v 0.8 1.2 -1.7
v 0.8 1.3 -1.7
v -1 0.1 -1.8
v -1 1.3 -1.8
v -0.9 0 -1.8
v -0.9 0.1 -1.8
v -0.9 1.2 -1.8
v -0.9 1.3 -1.8
v -0.6 0 -1.8
v -0.6 0.1 -1.8
v 0.6 0 -1.8
v 0.6 0.1 -1.8
v 0.9 0 -1.8
v 0.9 0.1 -1.8
v 0.9 1.2 -1.8
v 0.9 1.3 -1.8
v 1 0.1 -1.8
v 1 1.3 -1.8
v -1 0.1 1.8
v -1 0.5 1.8
v -1 0.6 1.8
v -1 1.3 1.8
v -0.9 0 1.8
v -0.9 0.1 1.8
v -0.9 0.6 1.8
v -0.9 0.9 1.8
v -0.9 1 1.8
v -0.9 1.3 1.8
v -0.8 0.9 1.8
v -0.8 1 1.8
v -0.6 0 1.8
v -0.6 0.1 1.8
v 0.6 0 1.8
v 0.6 0.1 1.8
v 0.9 0 1.8
v 0.9 0.1 1.8
v 1 0.1 1.8
v 1 0.5 1.8
v -1 0.7 1.2
v -1 0.8 1.2
v -1 1.1 1.2
v -1 1.2 1.2
v -0.9 0.7 1.2
v -0.9 0.8 1.2
v -0.9 1.1 1.2
v -0.9 1.2 1.2
v -1 0.5 0.8
v -1 1.3 0.8
v -0.9 1.2 0.8
v -0.9 1.3 0.8
v -0.8 1.2 0.8
v -0.8 1.3 0.8
v -0.1 1.4 0.8
v -0.1 1.5 0.8
v 0 1.4 0.8
v 0 1.5 0.8
v 0.2 1.4 0.8
v 0.2 1.5 0.8
v 0.8 1.2 0.8
v 0.8 1.3 0.8
v 0.9 1.2 0.8
v 0.9 1.3 0.8
v 1 0.5 0.8
v 1 1.3 0.8
v 0.4 1.5 -0.3
v 0.4 1.6 -0.3
v 0.5 1.5 -0.3
v 0.5 1.6 -0.3
v 0.5 1.7 -0.4
v 0.5 2.2 -0.4
v 0.6 1.7 -0.4
v 0.6 2.2 -0.4
v 0.2 1.4 -0.5
v 0.2 1.5 -0.5
v 0.6 1.4 -0.5
v 0.6 1.5 -0.5
v -0.4 1.4 -0.7
v -0.4 1.5 -0.7
v 0.1 1.4 -0.7
v 0.1 1.5 -0.7
v 0.3 1.6 -0.7
v 0.3 2.5 -0.7
v 0.5 1.6 -0.7
v 0.5 2.5 -0.7
v 0.2 1.8 -1.2
v 0.2 1.9 -1.2
v 0.3 1.8 -1.2
v 0.3 1.9 -1.2
v 0.1 1.4 -1.4
v 0.1 1.9 -1.4
v 0.2 1.5 -1.4
v 0.2 1.6 -1.4
v 0.2 1.7 -1.4
v 0.2 1.8 -1.4
v 0.3 1.5 -1.4
v 0.3 1.6 -1.4
v 0.3 1.7 -1.4
v 0.3 1.8 -1.4
v 0.4 1.4 -1.4
v 0.4 1.9 -1.4
v 0.2 1.5 -1.6
v 0.2 1.8 -1.6
v 0.3 1.5 -1.6
v 0.3 1.8 -1.6
v -1 0.1 -1.9
v -1 1.4 -1.9
v -0.9 0 -1.9
v -0.9 0.1 -1.9
v -0.6 0 -1.9
v -0.6 0.1 -1.9
v 0.6 0 -1.9
v 0.6 0.1 -1.9
v 0.9 0 -1.9
v 0.9 0.1 -1.9
v 1 0.1 -1.9
v 1 1.4 -1.9
v -0.9 0 1.9
v -0.6 0 1.9
v 0.6 0 1.9
v 0.9 0 1.9
v -0.9 0 1.8
v -0.6 0 1.8
v 0.6 0 1.8
v 0.9 0 1.8
v -0.9 0 -1.8
v -0.6 0 -1.8
v 0.6 0 -1.8
v 0.9 0 -1.8
v -0.9 0 -1.9
v -0.6 0 -1.9
v 0.6 0 -1.9
v 0.9 0 -1.9
v -1 0.1 1.9
v -0.9 0.1 1.9
v -0.6 0.1 1.9
v 0.6 0.1 1.9
v 0.9 0.1 1.9
v 1 0.1 1.9
v -1 0.1 1.8
v -0.9 0.1 1.8
v -0.6 0.1 1.8
v 0.6 0.1 1.8
v 0.9 0.1 1.8
v 1 0.1 1.8
v -1 0.1 -1.8
v -0.9 0.1 -1.8
v -0.6 0.1 -1.8
v 0.6 0.1 -1.8
v 0.9 0.1 -1.8
v 1 0.1 -1.8
v -1 0.1 -1.9
v -0.9 0.1 -1.9
v -0.6 0.1 -1.9
v 0.6 0.1 -1.9
v 0.9 0.1 -1.9
v 1 0.1 -1.9
v -1 0.5 1.8
v 1 0.5 1.8
v -1 0.5 0.8
v 1 0.5 0.8
v -1 0.7 1.5
v -0.9 0.7 1.5
v -1 0.7 1.2
v -0.9 0.7 1.2
v -0.9 1 1.8
v -0.8 1 1.8
v -0.9 1 0.9
v -0.8 1 0.9
v -1 1.1 1.5
v -0.9 1.1 1.5
v -1 1.1 1.2
v -0.9 1.1 1.2
v -0.9 1.2 0.8
v -0.8 1.2 0.8
v 0.8 1.2 0.8
v 0.9 1.2 0.8
v -0.8 1.2 -1.7
v 0.8 1.2 -1.7
v -0.9 1.2 -1.8
v 0.9 1.2 -1.8
v -1 1.3 1.8
v -0.9 1.3 1.8
v -1 1.3 0.9
v -0.9 1.3 0.9
v -1 1.3 0.8
v -0.9 1.3 0.8
v -0.8 1.3 0.8
v 0.8 1.3 0.8
v 0.9 1.3 0.8
v 1 1.3 0.8
v -0.8 1.3 -1.7
v 0.8 1.3 -1.7
v -1 1.3 -1.8
v -0.9 1.3 -1.8
v 0.9 1.3 -1.8
v 1 1.3 -1.8
v 0.2 1.5 -1.4
v 0.3 1.5 -1.4
v 0.2 1.5 -1.6
v 0.3 1.5 -1.6
v 0.3 1.6 0.6
v 0.5 1.6 0.6
v 0.4 1.6 0.2
v 0.5 1.6 0.2
v 0.4 1.6 -0.3
v 0.5 1.6 -0.3
v 0.3 1.6 -0.7
v 0.5 1.6 -0.7
v 0.5 1.7 0.3
v 0.6 1.7 0.3
v 0.5 1.7 -0.4
v 0.6 1.7 -0.4
v 0.2 1.7 -1.4
v 0.3 1.7 -1.4
v 0.2 1.7 -1.5
v 0.3 1.7 -1.5
v -1 0.6 1.8
v -0.9 0.6 1.8
v -1 0.6 0.9
v -0.9 0.6 0.9
v -1 0.8 1.5
v -0.9 0.8 1.5
v -1 0.8 1.2
v -0.9 0.8 1.2
v -0.9 0.9 1.8
v -0.8 0.9 1.8
v -0.9 0.9 0.9
v -0.8 0.9 0.9
v -1 1.2 1.5
v -0.9 1.2 1.5
v -1 1.2 1.2
v -0.9 1.2 1.2
v -1 1.4 1.9
v 1 1.4 1.9
v -0.9 1.4 1.8
v 0.9 1.4 1.8
v -0.1 1.4 1
v 0.2 1.4 1
v 0.2 1.4 0.9
v -0.1 1.4 0.8
v 0 1.4 0.8
v 0.2 1.4 0.8
v -0.4 1.4 0.6
v 0.1 1.4 0.6
v 0.2 1.4 0.4
v 0.6 1.4 0.4
v 0.2 1.4 -0.5
v 0.6 1.4 -0.5
v -0.4 1.4 -0.7
v 0.1 1.4 -0.7
v 0.1 1.4 -1.1
v 0.4 1.4 -1.1
v 0.1 1.4 -1.4
v 0.4 1.4 -1.4
v -0.9 1.4 -1.8
v 0.9 1.4 -1.8
v -1 1.4 -1.9
v 1 1.4 -1.9
v -0.1 1.5 1
v 0.2 1.5 1
v 0 1.5 0.9
v 0.2 1.5 0.9
v -0.1 1.5 0.8
v 0 1.5 0.8
v 0.2 1.5 0.8
v -0.4 1.5 0.6
v 0.1 1.5 0.6
v -0.3 1.5 0.5
v -0.2 1.5 0.5
v -0.1 1.5 0.5
v 0 1.5 0.5
v -0.3 1.5 0.4
v -0.2 1.5 0.4
v -0.1 1.5 0.4
v 0 1.5 0.4
v 0.2 1.5 0.4
v 0.6 1.5 0.4
v -0.3 1.5 0.3
v -0.2 1.5 0.3
v -0.1 1.5 0.3
v 0 1.5 0.3
v -0.3 1.5 0.2
v -0.2 1.5 0.2
v -0.1 1.5 0.2
v 0 1.5 0.2
v 0.4 1.5 0.2
v 0.5 1.5 0.2
v -0.2 1.5 0.1
v -0.1 1.5 0.1
v 0 1.5 0.1
v -0.2 1.5 0
v -0.1 1.5 0
v 0 1.5 0
v -0.2 1.5 -0.1
v -0.1 1.5 -0.1
v 0 1.5 -0.1
v -0.2 1.5 -0.2
v -0.1 1.5 -0.2
v 0 1.5 -0.2
v -0.3 1.5 -0.3
v -0.2 1.5 -0.3
v -0.1 1.5 -0.3
v 0 1.5 -0.3
v 0.4 1.5 -0.3
v 0.5 1.5 -0.3
v -0.3 1.5 -0.4
v -0.2 1.5 -0.4
v -0.1 1.5 -0.4
v 0 1.5 -0.4
v -0.3 1.5 -0.5
v -0.2 1.5 -0.5
v -0.1 1.5 -0.5
v 0 1.5 -0.5
v 0.2 1.5 -0.5
v 0.6 1.5 -0.5
v -0.3 1.5 -0.6
v -0.2 1.5 -0.6
v -0.1 1.5 -0.6
v 0 1.5 -0.6
v -0.4 1.5 -0.7
v 0.1 1.5 -0.7
v 0.2 1.6 -1.4
v 0.3 1.6 -1.4
v 0.2 1.6 -1.5
v 0.3 1.6 -1.5
v 0.2 1.8 -1.2
v 0.3 1.8 -1.2
v 0.2 1.8 -1.3
v 0.3 1.8 -1.3
v 0.2 1.8 -1.4
v 0.3 1.8 -1.4
v 0.2 1.8 -1.6
v 0.3 1.8 -1.6
v 0.1 1.9 -1.1
v 0.4 1.9 -1.1
v 0.2 1.9 -1.2
v 0.3 1.9 -1.2
v 0.2 1.9 -1.3
v 0.3 1.9 -1.3
v 0.1 1.9 -1.4
v 0.4 1.9 -1.4
v 0.5 2.2 0.3
v 0.6 2.2 0.3
v 0.5 2.2 -0.4
v 0.6 2.2 -0.4
v 0.3 2.5 0.6
v 0.5 2.5 0.6
v 0.3 2.5 -0.7
v 0.5 2.5 -0.7

# faces
f 5/6/1 2/6/1 1/6/1
f 7/6/1 5/6/1 1/6/1
f 7/6/1 6/6/1 5/6/1
f 8/6/1 6/6/1 7/6/1
f 11/8/1 10/8/1 9/8/1
f 12/8/1 10/8/1 11/8/1
f 15/8/1 14/8/1 13/8/1
f 16/8/1 14/8/1 15/8/1
f 17/6/1 7/6/1 1/6/1
f 18/6/1 6/6/1 8/6/1
f 19/6/1 6/6/1 18/6/1
f 20/6/1 4/6/1 3/6/1
f 21/6/1 19/6/1 18/6/1
f 21/6/1 20/6/1 19/6/1
f 21/6/1 17/6/1 1/6/1
f 21/6/1 18/6/1 17/6/1
f 22/6/1 4/6/1 20/6/1
f 22/6/1 20/6/1 21/6/1
f 27/9/1 24/9/1 23/9/1
f 28/9/1 24/9/1 27/9/1
f 29/9/1 26/9/1 25/9/1
f 30/9/1 26/9/1 29/9/1
f 33/5/1 32/5/1 31/5/1
f 34/5/1 32/5/1 33/5/1
f 35/5/1 33/5/1 31/5/1
f 36/5/1 32/5/1 34/5/1
f 37/5/1 35/5/1 31/5/1
f 37/5/1 36/5/1 35/5/1
f 38/5/1 32/5/1 36/5/1
f 38/5/1 36/5/1 37/5/1
f 41/5/1 40/5/1 39/5/1
f 42/5/1 40/5/1 41/5/1
f 43/5/1 41/5/1 39/5/1
f 44/5/1 40/5/1 42/5/1
f 47/5/1 44/5/1 43/5/1
f 47/5/1 43/5/1 39/5/1
f 48/5/1 40/5/1 44/5/1
f 48/5/1 44/5/1 47/5/1
f 49/4/1 46/4/1 45/4/1
f 50/4/1 46/4/1 49/4/1
f 53/6/1 52/6/1 51/6/1
f 54/6/1 52/6/1 53/6/1
f 57/9/1 56/9/1 55/9/1
f 58/9/1 56/9/1 57/9/1
f 61/10/1 60/10/1 59/10/1
f 62/10/1 60/10/1 61/10/1
f 65/3/1 64/3/1 63/3/1
f 66/3/1 64/3/1 65/3/1
f 69/9/1 68/9/1 67/9/1
f 70/9/1 68/9/1 69/9/1
f 73/3/1 72/3/1 71/3/1
f 74/3/1 72/3/1 73/3/1
f 76/3/1 72/3/1 74/3/1
f 77/3/1 76/3/1 75/3/1
f 78/3/1 72/3/1 76/3/1
f 78/3/1 76/3/1 77/3/1
f 81/9/1 80/9/1 79/9/1
f 82/9/1 80/9/1 81/9/1
f 85/3/1 84/3/1 83/3/1
f 86/3/1 84/3/1 85/3/1
f 87/9/1 81/9/1 79/9/1
f 87/2/1 82/2/1 81/2/1
f 88/9/1 80/9/1 82/9/1
f 88/2/1 82/2/1 87/2/1
f 89/9/1 87/9/1 79/9/1
f 89/9/1 88/9/1 87/9/1
f 90/9/1 80/9/1 88/9/1
f 90/9/1 88/9/1 89/9/1
f 93/9/1 92/9/1 91/9/1
f 94/9/1 92/9/1 93/9/1
f 99/9/1 96/9/1 95/9/1
f 100/9/1 96/9/1 99/9/1
f 101/9/1 98/9/1 97/9/1
f 102/9/1 98/9/1 101/9/1
f 105/4/1 104/4/1 103/4/1
f 106/4/1 104/4/1 105/4/1
f 107/4/2 108/4/2 109/4/2
f 109/4/2 108/4/2 110/4/2
f 111/9/2 112/9/2 115/9/2
f 115/9/2 112/9/2 116/9/2
f 113/9/2 114/9/2 117/9/2
f 117/9/2 114/9/2 118/9/2
f 119/9/2 120/9/2 121/9/2
f 121/9/2 120/9/2 122/9/2
f 123/10/2 124/10/2 126/10/2
f 124/9/2 125/9/2 127/9/2
f 126/10/2 124/10/2 127/10/2
f 127/9/2 125/9/2 128/9/2
f 129/3/2 130/3/2 131/3/2
f 131/3/2 130/3/2 132/3/2
f 133/3/2 134/3/2 135/3/2
f 135/3/2 134/3/2 136/3/2
f 136/3/2 134/3/2 138/3/2
f 137/3/2 138/3/2 139/3/2
f 138/3/2 134/3/2 140/3/2
f 139/3/2 138/3/2 140/3/2
f 141/3/2 142/3/2 143/3/2
f 143/3/2 142/3/2 144/3/2
f 145/9/2 146/9/2 148/9/2
f 148/9/2 146/9/2 149/9/2
f 147/9/2 148/9/2 151/9/2
f 149/9/2 150/9/2 151/9/2
f 148/9/2 149/9/2 151/9/2
f 151/9/2 150/9/2 152/9/2
f 147/9/2 151/9/2 153/9/2
f 152/9/2 150/9/2 154/9/2
f 147/9/2 153/9/2 155/9/2
f 153/9/2 154/9/2 155/9/2
f 154/9/2 150/9/2 156/9/2
f 155/9/2 154/9/2 156/9/2
f 157/9/2 158/9/2 159/9/2
f 159/9/2 158/9/2 160/9/2
f 161/9/2 162/9/2 163/9/2
f 163/9/2 162/9/2 164/9/2
f 165/9/2 166/9/2 169/9/2
f 169/9/2 166/9/2 170/9/2
f 167/9/2 168/9/2 171/9/2
f 171/9/2 168/9/2 172/9/2
f 173/4/2 174/4/2 175/4/2
f 175/4/2 174/4/2 176/4/2
f 177/6/2 178/6/2 181/6/2
f 181/6/2 182/6/2 183/6/2
f 179/6/2 180/6/2 184/6/2
f 181/6/2 183/6/2 185/6/2
f 183/6/2 184/6/2 185/6/2
f 177/6/2 181/6/2 185/6/2
f 184/6/2 180/6/2 186/6/2
f 185/6/2 184/6/2 186/6/2
f 190/6/3 188/6/3 187/6/3
f 191/9/3 190/9/3 189/9/3
f 192/6/3 188/6/3 190/6/3
f 192/9/3 190/9/3 191/9/3
f 194/6/3 188/6/3 192/6/3
f 195/9/3 194/9/3 193/9/3
f 196/6/3 188/6/3 194/6/3
f 196/9/3 194/9/3 195/9/3
f 197/6/3 188/6/3 196/6/3
f 198/6/3 188/6/3 197/6/3
f 203/8/3 200/8/3 199/8/3
f 204/8/3 200/8/3 203/8/3
f 205/8/3 202/8/3 201/8/3
f 206/8/3 202/8/3 205/8/3
f 209/10/3 208/10/3 207/10/3
f 210/10/3 208/10/3 209/10/3
f 213/6/3 212/6/3 211/6/3
f 214/6/3 212/6/3 213/6/3
f 215/6/3 212/6/3 214/6/3
f 216/6/3 212/6/3 215/6/3
f 217/6/3 215/6/3 214/6/3
f 218/6/3 215/6/3 217/6/3
f 221/9/3 220/9/3 219/9/3
f 222/9/3 220/9/3 221/9/3
f 225/9/3 224/9/3 223/9/3
f 226/9/3 224/9/3 225/9/3
f 229/9/3 228/9/3 227/9/3
f 230/9/3 228/9/3 229/9/3
f 233/9/3 232/9/3 231/9/3
f 234/9/3 232/9/3 233/9/3
f 237/9/3 236/9/3 235/9/3
f 238/9/3 236/9/3 237/9/3
f 241/3/3 240/3/3 239/3/3
f 242/3/3 240/3/3 241/3/3
f 245/3/3 244/3/3 243/3/3
f 246/3/3 244/3/3 245/3/3
f 249/3/3 248/3/3 247/3/3
f 250/3/3 248/3/3 249/3/3
f 253/4/3 252/4/3 251/4/3
f 254/4/3 252/4/3 253/4/3
f 258/6/3 256/6/3 255/6/3
f 259/6/3 256/6/3 258/6/3
f 260/6/3 256/6/3 259/6/3
f 261/9/3 258/9/3 257/9/3
f 262/6/3 259/6/3 258/6/3
f 262/9/3 258/9/3 261/9/3
f 264/6/3 259/6/3 262/6/3
f 265/9/3 264/9/3 263/9/3
f 266/6/3 259/6/3 264/6/3
f 266/9/3 264/9/3 265/9/3
f 267/6/3 259/6/3 266/6/3
f 269/6/3 268/6/3 267/6/3
f 269/6/3 267/6/3 266/6/3
f 270/6/3 268/6/3 269/6/3
f 271/6/4 272/6/4 276/6/4
f 273/6/4 274/6/4 277/6/4
f 277/6/4 274/6/4 278/6/4
f 278/6/4 274/6/4 279/6/4
f 279/6/4 274/6/4 280/6/4
f 278/6/4 279/6/4 281/6/4
f 281/6/4 279/6/4 282/6/4
f 275/9/4 276/9/4 283/9/4
f 276/6/4 272/6/4 284/6/4
f 283/9/4 276/9/4 284/9/4
f 284/6/4 272/6/4 286/6/4
f 285/9/4 286/9/4 287/9/4
f 286/6/4 272/6/4 288/6/4
f 287/9/4 286/9/4 288/9/4
f 288/6/4 272/6/4 289/6/4
f 289/6/4 272/6/4 290/6/4
f 291/8/4 292/8/4 295/8/4
f 295/8/4 292/8/4 296/8/4
f 293/8/4 294/8/4 297/8/4
f 297/8/4 294/8/4 298/8/4
f 299/6/4 300/6/4 301/6/4
f 301/6/4 300/6/4 302/6/4
f 299/6/4 301/6/4 303/6/4
f 305/10/4 306/10/4 307/10/4
f 307/10/4 306/10/4 308/10/4
f 307/9/4 308/9/4 309/9/4
f 309/9/4 308/9/4 310/9/4
f 303/6/4 304/6/4 311/6/4
f 299/6/4 303/6/4 311/6/4
f 311/6/4 304/6/4 312/6/4
f 299/6/4 311/6/4 313/6/4
f 299/6/4 313/6/4 315/6/4
f 313/6/4 314/6/4 315/6/4
f 315/6/4 314/6/4 316/6/4
f 317/9/4 318/9/4 319/9/4
f 319/9/4 318/9/4 320/9/4
f 321/9/4 322/9/4 323/9/4
f 323/9/4 322/9/4 324/9/4
f 325/9/4 326/9/4 327/9/4
f 327/9/4 326/9/4 328/9/4
f 329/9/4 330/9/4 331/9/4
f 331/9/4 330/9/4 332/9/4
f 333/9/4 334/9/4 335/9/4
f 335/9/4 334/9/4 336/9/4
f 337/3/4 338/3/4 339/3/4
f 339/3/4 338/3/4 340/3/4
f 341/3/4 342/3/4 343/3/4
f 343/3/4 342/3/4 344/3/4
f 344/3/4 342/3/4 345/3/4
f 345/3/4 342/3/4 346/3/4
f 341/3/4 343/3/4 347/3/4
f 344/3/4 345/3/4 348/3/4
f 348/3/4 345/3/4 349/3/4
f 346/3/4 342/3/4 350/3/4
f 348/3/4 349/3/4 351/3/4
f 349/3/4 350/3/4 351/3/4
f 341/3/4 347/3/4 351/3/4
f 347/3/4 348/3/4 351/3/4
f 350/3/4 342/3/4 352/3/4
f 351/3/4 350/3/4 352/3/4
f 353/3/4 354/3/4 355/3/4
f 355/3/4 354/3/4 356/3/4
f 357/6/4 358/6/4 360/6/4
f 359/9/4 360/9/4 361/9/4
f 360/6/4 358/6/4 362/6/4
f 361/9/4 360/9/4 362/9/4
f 362/6/4 358/6/4 364/6/4
f 363/9/4 364/9/4 365/9/4
f 364/6/4 358/6/4 366/6/4
f 365/9/4 364/9/4 366/9/4
f 366/6/4 358/6/4 367/6/4
f 367/6/4 358/6/4 368/6/4
f 373/9/5 370/9/5 369/9/5
f 374/9/5 370/9/5 373/9/5
f 375/9/5 372/9/5 371/9/5
f 376/9/5 372/9/5 375/9/5
f 381/9/5 378/9/5 377/9/5
f 382/9/5 378/9/5 381/9/5
f 383/9/5 380/9/5 379/9/5
f 384/9/5 380/9/5 383/9/5
f 391/6/5 386/6/5 385/6/5
f 392/6/5 386/6/5 391/6/5
f 393/6/5 388/6/5 387/6/5
f 394/6/5 388/6/5 393/6/5
f 395/6/5 390/6/5 389/6/5
f 396/6/5 390/6/5 395/6/5
f 403/6/5 398/6/5 397/6/5
f 404/6/5 398/6/5 403/6/5
f 405/6/5 400/6/5 399/6/5
f 406/6/5 400/6/5 405/6/5
f 407/6/5 402/6/5 401/6/5
f 408/6/5 402/6/5 407/6/5
f 411/6/5 410/6/5 409/6/5
f 412/6/5 410/6/5 411/6/5
f 415/8/5 414/8/5 413/8/5
f 416/8/5 414/8/5 415/8/5
f 419/5/5 418/5/5 417/5/5
f 420/5/5 418/5/5 419/5/5
f 423/8/5 422/8/5 421/8/5
f 424/8/5 422/8/5 423/8/5
f 429/4/5 426/4/5 425/4/5
f 430/4/5 428/4/5 427/4/5
f 431/4/5 429/4/5 425/4/5
f 431/4/5 430/4/5 429/4/5
f 432/4/5 428/4/5 430/4/5
f 432/4/5 430/4/5 431/4/5
f 435/6/5 434/6/5 433/6/5
f 436/6/5 434/6/5 435/6/5
f 443/5/5 440/5/5 439/5/5
f 444/5/5 440/5/5 443/5/5
f 445/6/5 438/6/5 437/6/5
f 446/6/5 438/6/5 445/6/5
f 447/6/5 442/6/5 441/6/5
f 448/6/5 442/6/5 447/6/5
f 451/3/5 450/3/5 449/3/5
f 452/3/5 450/3/5 451/3/5
f 455/9/5 454/9/5 453/9/5
f 456/9/5 454/9/5 455/9/5
f 457/9/5 455/9/5 453/9/5
f 459/9/5 457/9/5 453/9/5
f 459/9/5 458/9/5 457/9/5
f 460/9/5 458/9/5 459/9/5
f 463/9/5 462/9/5 461/9/5
f 464/9/5 462/9/5 463/9/5
f 467/3/5 466/3/5 465/3/5
f 468/3/5 466/3/5 467/3/5
f 469/6/6 470/6/6 471/6/6
f 471/6/6 470/6/6 472/6/6
f 473/8/6 474/8/6 475/8/6
f 475/8/6 474/8/6 476/8/6
f 477/5/6 478/5/6 479/5/6
f 479/5/6 478/5/6 480/5/6
f 481/8/6 482/8/6 483/8/6
f 483/8/6 482/8/6 484/8/6
f 485/6/6 486/6/6 487/6/6
f 487/6/6 486/6/6 488/6/6
f 487/5/6 488/5/6 489/5/6
f 489/5/6 488/5/6 490/5/6
f 490/5/6 488/5/6 491/5/6
f 487/5/6 489/5/6 492/5/6
f 491/5/6 488/5/6 494/5/6
f 492/5/6 493/5/6 495/5/6
f 493/5/6 494/5/6 495/5/6
f 487/5/6 492/5/6 495/5/6
f 495/5/6 494/5/6 496/5/6
f 494/5/6 488/5/6 497/5/6
f 496/5/6 494/5/6 497/5/6
f 497/5/6 488/5/6 498/5/6
f 496/5/6 497/5/6 499/5/6
f 498/5/6 488/5/6 500/5/6
f 487/5/6 495/5/6 501/5/6
f 499/5/6 500/5/6 502/5/6
f 496/5/6 499/5/6 502/5/6
f 502/5/6 500/5/6 503/5/6
f 501/5/6 502/5/6 503/5/6
f 503/5/6 500/5/6 504/5/6
f 501/5/6 503/5/6 505/5/6
f 504/5/6 500/5/6 506/5/6
f 485/6/6 487/6/6 507/6/6
f 505/5/6 506/5/6 507/5/6
f 487/5/6 501/5/6 507/5/6
f 501/5/6 505/5/6 507/5/6
f 506/5/6 500/5/6 508/5/6
f 507/5/6 506/5/6 508/5/6
f 488/6/6 486/6/6 508/6/6
f 500/5/6 488/5/6 508/5/6
f 485/6/6 507/6/6 509/6/6
f 507/6/6 508/6/6 509/6/6
f 508/6/6 486/6/6 510/6/6
f 509/6/6 508/6/6 510/6/6
f 511/10/6 512/10/6 513/10/6
f 513/10/6 512/10/6 514/10/6
f 511/10/6 513/10/6 515/10/6
f 513/9/6 514/9/6 516/9/6
f 515/10/6 513/10/6 516/10/6
f 516/9/6 514/9/6 517/9/6
f 518/9/6 519/9/6 520/9/6
f 520/9/6 519/9/6 521/9/6
f 521/9/6 519/9/6 522/9/6
f 522/9/6 519/9/6 523/9/6
f 518/9/6 520/9/6 524/9/6
f 520/8/6 521/8/6 524/8/6
f 521/7/6 522/7/6 525/7/6
f 524/8/6 521/8/6 525/8/6
f 522/8/6 523/8/6 526/8/6
f 525/7/6 522/7/6 526/7/6
f 523/9/6 519/9/6 527/9/6
f 526/8/6 523/8/6 527/8/6
f 524/7/6 525/7/6 530/7/6
f 518/9/6 524/9/6 530/9/6
f 525/8/6 526/8/6 531/8/6
f 530/7/6 525/7/6 531/7/6
f 526/7/6 527/7/6 532/7/6
f 531/8/6 526/8/6 532/8/6
f 527/9/6 519/9/6 533/9/6
f 532/7/6 527/7/6 533/7/6
f 530/8/6 531/8/6 534/8/6
f 518/9/6 530/9/6 534/9/6
f 531/7/6 532/7/6 535/7/6
f 534/8/6 531/8/6 535/8/6
f 532/8/6 533/8/6 536/8/6
f 535/7/6 532/7/6 536/7/6
f 533/9/6 519/9/6 537/9/6
f 536/8/6 533/8/6 537/8/6
f 528/9/6 529/9/6 538/9/6
f 538/9/6 529/9/6 539/9/6
f 535/8/6 536/8/6 540/8/6
f 534/7/6 535/7/6 540/7/6
f 536/7/6 537/7/6 541/7/6
f 540/8/6 536/8/6 541/8/6
f 537/9/6 519/9/6 542/9/6
f 541/7/6 537/7/6 542/7/6
f 540/7/6 541/7/6 543/7/6
f 534/7/6 540/7/6 543/7/6
f 541/8/6 542/8/6 544/8/6
f 543/7/6 541/7/6 544/7/6
f 542/9/6 519/9/6 545/9/6
f 544/8/6 542/8/6 545/8/6
f 543/8/6 544/8/6 546/8/6
f 534/7/6 543/7/6 546/7/6
f 544/7/6 545/7/6 547/7/6
f 546/8/6 544/8/6 547/8/6
f 545/9/6 519/9/6 548/9/6
f 547/7/6 545/7/6 548/7/6
f 546/7/6 547/7/6 549/7/6
f 534/7/6 546/7/6 549/7/6
f 547/8/6 548/8/6 550/8/6
f 549/7/6 547/7/6 550/7/6
f 548/9/6 519/9/6 551/9/6
f 550/8/6 548/8/6 551/8/6
f 518/9/6 534/9/6 552/9/6
f 534/7/6 549/7/6 552/7/6
f 549/8/6 550/8/6 553/8/6
f 552/7/6 549/7/6 553/7/6
f 550/7/6 551/7/6 554/7/6
f 553/8/6 550/8/6 554/8/6
f 551/9/6 519/9/6 555/9/6
f 554/7/6 551/7/6 555/7/6
f 528/9/6 538/9/6 556/9/6
f 539/9/6 529/9/6 557/9/6
f 518/9/6 552/9/6 558/9/6
f 552/8/6 553/8/6 558/8/6
f 553/7/6 554/7/6 559/7/6
f 558/8/6 553/8/6 559/8/6
f 554/8/6 555/8/6 560/8/6
f 559/7/6 554/7/6 560/7/6
f 555/9/6 519/9/6 561/9/6
f 560/8/6 555/8/6 561/8/6
f 518/9/6 558/9/6 562/9/6
f 558/7/6 559/7/6 562/7/6
f 559/8/6 560/8/6 563/8/6
f 562/7/6 559/7/6 563/7/6
f 560/7/6 561/7/6 564/7/6
f 563/8/6 560/8/6 564/8/6
f 561/9/6 519/9/6 565/9/6
f 564/7/6 561/7/6 565/7/6
f 528/9/6 556/9/6 566/9/6
f 556/9/6 557/9/6 566/9/6
f 557/9/6 529/9/6 567/9/6
f 566/9/6 557/9/6 567/9/6
f 518/9/6 562/9/6 568/9/6
f 562/8/6 563/8/6 568/8/6
f 563/7/6 564/7/6 569/7/6
f 568/8/6 563/8/6 569/8/6
f 564/8/6 565/8/6 570/8/6
f 569/7/6 564/7/6 570/7/6
f 565/9/6 519/9/6 571/9/6
f 570/8/6 565/8/6 571/8/6
f 518/9/6 568/9/6 572/9/6
f 569/9/6 570/9/6 572/9/6
f 570/9/6 571/9/6 572/9/6
f 568/9/6 569/9/6 572/9/6
f 571/9/6 519/9/6 573/9/6
f 572/9/6 571/9/6 573/9/6
f 574/3/6 575/3/6 576/3/6
f 576/3/6 575/3/6 577/3/6
f 578/1/6 579/1/6 580/1/6
f 580/1/6 579/1/6 581/1/6
f 582/3/6 583/3/6 584/3/6
f 584/3/6 583/3/6 585/3/6
f 586/3/6 587/3/6 588/3/6
f 588/3/6 587/3/6 589/3/6
f 586/3/6 588/3/6 590/3/6
f 589/3/6 587/3/6 591/3/6
f 586/3/6 590/3/6 592/3/6
f 590/3/6 591/3/6 592/3/6
f 591/3/6 587/3/6 593/3/6
f 592/3/6 591/3/6 593/3/6
f 594/9/6 595/9/6 596/9/6
f 596/9/6 595/9/6 597/9/6
f 598/9/6 599/9/6 600/9/6
f 600/9/6 599/9/6 601/9/6
